<svg xmlns="http://www.w3.org/2000/svg" viewBox="0 0 64 64" fill="none">
  <defs>
    <linearGradient id="bg" x1="12" y1="8" x2="52" y2="56" gradientUnits="userSpaceOnUse">
      <stop offset="0" stop-color="#37140A" />
      <stop offset="1" stop-color="#120703" />
    </linearGradient>
    <linearGradient id="outerFlame" x1="32" y1="14" x2="32" y2="54" gradientUnits="userSpaceOnUse">
      <stop offset="0" stop-color="#FFF4B8" />
      <stop offset="0.4" stop-color="#FFB02E" />
      <stop offset="1" stop-color="#E0471B" />
    </linearGradient>
    <linearGradient id="innerFlame" x1="32" y1="24" x2="32" y2="48" gradientUnits="userSpaceOnUse">
      <stop offset="0" stop-color="#FFFCE8" />
      <stop offset="1" stop-color="#FFD45A" />
    </linearGradient>
  </defs>
  <rect width="64" height="64" rx="18" fill="url(#bg)" />
  <circle cx="32" cy="32" r="19" fill="#FF7A1A" opacity="0.18" />
  <path
    d="M33.5 10C38.9 16.2 43.2 22.2 43.2 29.2C43.2 31.8 42.6 34.1 41.6 36.1C44.7 36.8 47.4 39.8 47.4 44C47.4 50.2 42 55 34.8 55C25.8 55 19.3 49 19.3 40.7C19.3 33.6 23.6 28.3 28.6 24.5C29.2 28.9 31 32.1 34.4 34.2C34.6 27.1 37.3 20.8 33.5 10Z"
    fill="url(#outerFlame)"
  />
  <path
    d="M33.1 23.4C36.4 27.7 38.5 31 38.5 35.2C38.5 36.6 38.2 37.9 37.6 39C39.8 39.6 41.4 41.5 41.4 44.2C41.4 48.2 38.2 51.2 33.9 51.2C28.5 51.2 24.8 47.7 24.8 42.8C24.8 38.7 27.3 35.6 30.4 33.4C30.7 36 31.8 38.1 33.8 39.4C33.9 35.2 35.5 31.3 33.1 23.4Z"
    fill="url(#innerFlame)"
  />
</svg>
